<?xml version="1.0" encoding="UTF-8"?>
<svg xmlns="http://www.w3.org/2000/svg" xmlns:xlink="http://www.w3.org/1999/xlink" width="595pt" height="225.4pt" viewBox="0 0 595 225.4" version="1.1">
<defs>
<clipPath id="clip1">
  <path d="M 0 0 L 595 0 L 595 225.398438 L 0 225.398438 Z M 0 0 "/>
</clipPath>
</defs>
<g id="surface1">
<g clip-path="url(#clip1)" clip-rule="nonzero">
<path style=" stroke:none;fill-rule:evenodd;fill:rgb(7.446289%,16.868591%,17.651367%);fill-opacity:1;" d="M 0 225.351563 L 657.65625 225.351563 L 657.65625 -0.0625 L 0 -0.0625 Z M 0 225.351563 "/>
</g>
<path style=" stroke:none;fill-rule:evenodd;fill:rgb(100%,100%,100%);fill-opacity:1;" d="M 150.28125 89.992188 C 150.28125 85.984375 153.449219 82.808594 157.460938 82.808594 L 194.007813 82.808594 C 197.644531 82.808594 200.535156 85.707031 200.535156 89.335938 C 200.535156 92.976563 197.644531 95.863281 194.007813 95.863281 L 164.636719 95.863281 L 164.636719 109.757813 L 189.8125 109.757813 C 193.453125 109.757813 196.339844 112.648438 196.339844 116.285156 C 196.339844 119.925781 193.449219 122.8125 189.8125 122.8125 L 164.636719 122.808594 L 164.636719 141.460938 C 164.636719 145.46875 161.46875 148.636719 157.460938 148.636719 C 153.449219 148.636719 150.28125 145.464844 150.28125 141.460938 Z M 150.28125 89.992188 "/>
<path style=" stroke:none;fill-rule:evenodd;fill:rgb(100%,100%,100%);fill-opacity:1;" d="M 205.734375 89.433594 C 205.734375 85.421875 208.902344 82.25 212.910156 82.25 C 216.917969 82.25 220.089844 85.417969 220.089844 89.433594 L 220.089844 135.023438 L 246.664063 135.027344 C 250.300781 135.027344 253.191406 137.917969 253.191406 141.554688 C 253.191406 145.191406 250.300781 148.082031 246.664063 148.082031 L 212.910156 148.082031 C 208.902344 148.082031 205.734375 144.914063 205.734375 140.898438 Z M 205.734375 89.433594 "/>
<path style=" stroke:none;fill-rule:evenodd;fill:rgb(100%,100%,100%);fill-opacity:1;" d="M 256.726563 138.851563 L 279.480469 87.476563 C 281.0625 83.929688 283.953125 81.789063 287.871094 81.789063 L 288.710938 81.789063 C 292.625 81.789063 295.421875 83.929688 297.007813 87.472656 L 319.761719 138.851563 C 320.222656 139.875 320.503906 140.808594 320.503906 141.742188 C 320.503906 145.5625 317.523438 148.640625 313.695313 148.640625 C 310.34375 148.640625 308.105469 146.683594 306.800781 143.699219 L 302.414063 133.445313 L 273.695313 133.445313 L 269.128906 144.167969 C 267.914063 146.960938 265.492188 148.640625 262.511719 148.640625 C 258.777344 148.640625 255.886719 145.65625 255.886719 141.925781 C 255.886719 140.898438 256.261719 139.875 256.726563 138.851563 Z M 297.101563 120.761719 L 288.058594 99.21875 L 279.007813 120.761719 Z M 297.101563 120.761719 "/>
<path style=" stroke:none;fill-rule:evenodd;fill:rgb(100%,100%,100%);fill-opacity:1;" d="M 334.175781 96.054688 L 320.375 96.054688 C 316.734375 96.054688 313.753906 93.070313 313.753906 89.433594 C 313.753906 85.792969 316.734375 82.8125 320.375 82.8125 L 362.332031 82.8125 C 365.96875 82.8125 368.953125 85.792969 368.953125 89.433594 C 368.953125 93.070313 365.96875 96.054688 362.332031 96.054688 L 348.535156 96.054688 L 348.535156 141.464844 C 348.535156 145.46875 345.359375 148.640625 341.355469 148.640625 C 337.34375 148.640625 334.175781 145.464844 334.175781 141.464844 Z M 334.175781 96.054688 "/>
<path style=" stroke:none;fill-rule:evenodd;fill:rgb(66.209412%,99.21875%,0%);fill-opacity:1;" d="M 374.242188 89.433594 C 374.242188 85.421875 377.410156 82.25 381.425781 82.25 C 385.429688 82.25 388.601563 85.417969 388.601563 89.433594 L 388.601563 141.464844 C 388.601563 145.46875 385.429688 148.640625 381.425781 148.640625 C 377.410156 148.640625 374.242188 145.46875 374.242188 141.464844 Z M 374.242188 89.433594 "/>
<path style=" stroke:none;fill-rule:evenodd;fill:rgb(66.209412%,99.21875%,0%);fill-opacity:1;" d="M 397.078125 115.636719 L 397.078125 115.445313 C 397.078125 96.890625 411.066406 81.695313 431.109375 81.695313 C 440.894531 81.695313 447.519531 84.300781 452.929688 88.3125 C 454.417969 89.433594 455.726563 91.480469 455.726563 94 C 455.726563 97.917969 452.558594 100.992188 448.636719 100.992188 C 446.679688 100.992188 445.375 100.25 444.34375 99.59375 C 440.335938 96.609375 436.140625 94.929688 431.011719 94.929688 C 420.011719 94.929688 412.085938 104.070313 412.085938 115.261719 L 412.085938 115.445313 C 412.085938 126.632813 419.824219 135.957031 431.011719 135.957031 C 437.078125 135.957031 441.085938 134.09375 445.191406 130.828125 C 446.304688 129.898438 447.796875 129.246094 449.476563 129.246094 C 453.117188 129.246094 456.191406 132.230469 456.191406 135.863281 C 456.191406 138.097656 455.070313 139.875 453.769531 140.996094 C 447.890625 146.125 440.992188 149.203125 430.546875 149.203125 C 411.34375 149.203125 397.078125 134.375 397.078125 115.636719 Z M 397.078125 115.636719 "/>
<path style=" stroke:none;fill-rule:evenodd;fill:rgb(66.209412%,99.21875%,0%);fill-opacity:1;" d="M 459.566406 115.636719 L 459.566406 115.445313 C 459.566406 96.890625 474.203125 81.695313 494.34375 81.695313 C 514.488281 81.695313 528.933594 96.703125 528.933594 115.261719 L 528.933594 115.445313 C 528.933594 134 514.304688 149.203125 494.15625 149.203125 C 474.019531 149.203125 459.566406 134.191406 459.566406 115.636719 Z M 513.921875 115.636719 L 513.921875 115.445313 C 513.921875 104.257813 505.722656 94.933594 494.15625 94.933594 C 482.59375 94.933594 474.574219 104.074219 474.574219 115.261719 L 474.574219 115.445313 C 474.574219 126.636719 482.777344 135.960938 494.34375 135.960938 C 505.914063 135.960938 513.921875 126.824219 513.921875 115.636719 Z M 513.921875 115.636719 "/>
<path style=" stroke:none;fill-rule:evenodd;fill:rgb(66.209412%,99.21875%,0%);fill-opacity:1;" d="M 537.28125 89.617188 C 537.28125 85.609375 540.457031 82.4375 544.464844 82.4375 L 545.949219 82.4375 C 549.402344 82.4375 551.453125 84.117188 553.410156 86.632813 L 581.105469 123 L 581.105469 89.339844 C 581.105469 85.417969 584.277344 82.25 588.195313 82.25 C 592.105469 82.25 595.277344 85.417969 595.277344 89.339844 L 595.277344 141.273438 C 595.277344 145.285156 592.105469 148.453125 588.097656 148.453125 L 587.632813 148.453125 C 584.175781 148.453125 582.128906 146.777344 580.167969 144.257813 L 551.453125 106.589844 L 551.453125 141.554688 C 551.453125 145.46875 548.285156 148.640625 544.367188 148.640625 C 540.457031 148.640625 537.285156 145.46875 537.285156 141.554688 L 537.285156 89.617188 Z M 537.28125 89.617188 "/>
<path style=" stroke:none;fill-rule:evenodd;fill:rgb(100%,100%,100%);fill-opacity:1;" d="M 51.339844 118.078125 L 64.625 118.078125 L 76.464844 98.402344 L 39.46875 98.402344 L 27.261719 78.171875 L 88.636719 78.171875 L 100.472656 58.496094 L 9.839844 58.496094 C 6.289063 58.496094 3.015625 60.410156 1.269531 63.503906 C -0.472656 66.585938 -0.417969 70.382813 1.414063 73.417969 L 54.882813 162.039063 C 56.664063 164.992188 59.859375 166.792969 63.308594 166.792969 C 66.753906 166.792969 69.949219 164.992188 71.730469 162.039063 L 74.804688 156.941406 Z M 51.339844 118.078125 "/>
<path style=" stroke:none;fill-rule:evenodd;fill:rgb(66.209412%,99.21875%,0%);fill-opacity:1;" d="M 99.3125 78.171875 L 99.347656 78.171875 L 99.347656 78.175781 L 122.328125 78.179688 L 125.199219 73.417969 C 127.03125 70.382813 127.085938 66.585938 125.339844 63.5 C 123.597656 60.40625 120.324219 58.496094 116.773438 58.496094 L 111.15625 58.496094 Z M 99.3125 78.171875 "/>
<path style=" stroke:none;fill-rule:evenodd;fill:rgb(66.209412%,99.21875%,0%);fill-opacity:1;" d="M 93.707031 87.53125 L 68.695313 129.0625 L 80.152344 148.078125 L 116.683594 87.53125 Z M 93.707031 87.53125 "/>
</g>
</svg>
