<?xml version="1.0" encoding="utf-8"?>
<!-- Generator: Adobe Illustrator 24.1.2, SVG Export Plug-In . SVG Version: 6.00 Build 0)  -->
<svg version="1.1" id="ehh46vy8odcj1" text-rendering="geometricPrecision" shape-rendering="geometricPrecision"
	 xmlns="http://www.w3.org/2000/svg" xmlns:xlink="http://www.w3.org/1999/xlink" x="0px" y="0px" viewBox="0 0 379 304.3"
	 style="enable-background:new 0 0 379 304.3;" xml:space="preserve">
<style type="text/css">
	.st0{fill:#00C47D;}
	.st1{fill:none;stroke:#FFFFFF;stroke-width:4.0565;stroke-linecap:round;stroke-miterlimit:10;}
	.st2{fill:none;stroke:#FFFFFF;stroke-width:3.9678;stroke-linecap:round;stroke-miterlimit:10;}
	.st3{fill:#FFFFFF;}
	.st4{fill:#4C4C4C;}
	.st5{fill:#3A3A3A;}
</style>
<g>
	<g id="ehh46vy8odcj2">
		<g id="ehh46vy8odcj3">
			<g id="ehh46vy8odcj4">
				<g id="ehh46vy8odcj5">
					<g id="ehh46vy8odcj6">
						<g id="ehh46vy8odcj7">
							<polygon id="ehh46vy8odcj8" class="st0" points="25.4,118.7 32.2,118.3 32.9,114.4 13.4,102.6 17.5,123.4 24.5,125.6 							
								"/>
							<g id="ehh46vy8odcj9">
								<g id="ehh46vy8odcj10">
									<path id="ehh46vy8odcj11" d="M34.8,116.4l-0.7,4.2l-6.8,0.4l-0.9,7.2l-7.7-2.4l0.1,0.4l44.8,65.2l15.5-10.4L34.8,116.4z"/>
								</g>
							</g>
						</g>
						<g id="ehh46vy8odcj12">
							<g id="ehh46vy8odcj13">
								<g id="ehh46vy8odcj14">
									
										<ellipse id="ehh46vy8odcj15" transform="matrix(4.785945e-03 -1 1 4.785945e-03 -120.1602 211.5562)" cx="46.2" cy="166.1" rx="22.9" ry="17.4"/>
									<path id="ehh46vy8odcj16" class="st1" d="M41.8,150.1c0,0-17.4,14.4,0.1,32.7"/>
								</g>
								<g id="ehh46vy8odcj17">
									
										<ellipse id="ehh46vy8odcj18" transform="matrix(4.785945e-03 -1 1 4.785945e-03 -25.1567 307.9227)" cx="142.1" cy="166.6" rx="22.9" ry="17.4"/>
									<path id="ehh46vy8odcj19" class="st2" d="M146.5,151.9c0,0,17.8,15.1-2.2,32.6"/>
								</g>
								
									<ellipse id="ehh46vy8odcj20" transform="matrix(4.785945e-03 -1 1 4.785945e-03 -92.5326 281.5667)" cx="95.2" cy="187.3" rx="39.1" ry="43.5"/>
								<circle id="ehh46vy8odcj21" cx="94.1" cy="148.7" r="50.5"/>
								
									<ellipse id="ehh46vy8odcj22" transform="matrix(4.785945e-03 -1 1 4.785945e-03 -104.9643 292.6384)" class="st3" cx="94.5" cy="199.1" rx="16.4" ry="31.8"/>
								<path id="ehh46vy8odcj23" class="st3" d="M107.8,133.5c-14-0.1-25.4,11.2-25.4,25.1c0,2.3,5.3-4.1,12.3-2.8
									c2.7,0.5,4.7,2.5,5.9,5c4.1,8.3,10,14.2,16.9,20.4c9-3.8,15.3-11.8,15.4-22.2C133,144.9,121.7,133.5,107.8,133.5z"/>
								<path id="ehh46vy8odcj24" class="st3" d="M60.5,179.4c1-0.1,2.2,0,3.1,0.1c4,0.4,8.2,0.3,11.9-1.5
									c4.6-2.3,8.3-6.8,11.3-11.2c1-1.5,1.5-3.2,2.3-5c0.5-1.1,0.2-5,1.3-5.6c2.3-1,5.9,1.9,8.5,1.8c-0.3-13.7-11-24.7-24.3-24.8
									C61.1,133,50.1,144.3,50,158.3C49.9,167.2,54.1,174.8,60.5,179.4z"/>
								<path id="ehh46vy8odcj25" d="M99.4,195.7c-1.2,0.5-1.6-3.8-0.4-4.6l3.4-2.3c0.7-0.5,1.3,0.6,1.5,2.2l0,0
									c0.1,1.6-0.4,3.2-1,3.3L99.4,195.7z"/>
								<path id="ehh46vy8odcj26" d="M93.9,195.7c1.2,0.5,1.6-3.8,0.5-4.6l-3.4-2.3c-0.7-0.5-1.3,0.5-1.5,2.2l0,0
									c-0.1,1.6,0.4,3.2,1,3.3L93.9,195.7z"/>
								<g id="ehh46vy8odcj27">
									<g id="ehh46vy8odcj28">
										<path id="ehh46vy8odcj29" d="M45.5,155.2c0.8-0.1,1.5-0.1,2.3-0.2c0.3,0,0.6-0.3,0.7-0.5c0.9-3.2,3.2-5.2,6.5-5.3
											c3-0.1,6-0.1,9-0.1c5.7,0,11.4,0.1,17.2,0.1c2.9,0,5.7,0.7,7.8,2.8c0.2,0.2,0.6,0.3,0.9,0.3c2,0,4,0,6,0
											c0.3,0,0.7-0.1,0.9-0.3c1.9-1.9,4.3-2.7,6.9-2.7c8.6,0,17.3,0.1,26,0.1c2.6,0,4.8,0.9,6.4,3c0.5,0.7,0.9,1.6,1,2.4
											c0.2,0.5,0.3,0.7,0.8,0.7c0.6,0,1,0,1.7,0c0,2,0,3.9,0,5.9c-0.9,0-1.8,0-2.7,0c-0.4,2.8-0.7,5.6-0.9,8.4
											c-0.2,1.9-0.4,3.7-0.8,5.5c-0.8,3-2.5,5.5-5.8,6.4c-0.8,0.2-1.5,0.3-2.3,0.3c-7.2,0-14.5-0.1-21.7-0.1
											c-1.7,0-6.2-5.9-6.8-8.1c-1.5-4.8-2.4-9.9-3-14.9c0-0.1,0-0.2-0.1-0.4c-1.6,0-3.2,0-4.8,0c-0.4,2.4-0.8,4.8-1.2,7.2
											c-0.7,3.6-1.5,7.2-3,10.6c-0.7,1.4-1.4,2.7-2.4,3.9c-0.8,1.1-2,1.5-3.4,1.5c-7.1-0.1-14.2-0.1-21.3-0.1
											c-4.9,0-8.2-2.7-8.8-7.7c-0.6-4.2-0.9-8.2-1.4-12.4c0-0.1,0-0.3-0.1-0.5c-1,0-2.2,0-3.2,0C45.4,159,45.4,157.1,45.5,155.2
											z M69.3,155.2c-3.1,0-6.2,0-9.3,0c-0.6,0-1.1,0-1.6,0.1c-2.2,0.4-3.8,2.4-3.6,4.5c0.4,3.9,0.8,7.7,1.1,11.6
											c0.3,2.8,2.2,4.5,5.1,4.5c5.3,0,10.6,0,15.9,0.1c1.6,0,2.6-0.6,3.3-1.9c0.3-0.5,0.5-0.9,0.7-1.4c1.7-4.1,2.4-8.4,2.8-12.8
											c0.2-1.7-0.7-3.1-2.3-3.9c-0.9-0.4-1.9-0.6-2.8-0.7C75.5,155.2,72.4,155.2,69.3,155.2z M116.1,155.4c-3.2,0-6.5-0.1-9.8,0
											c-3.3,0-5.2,2.2-4.7,5.4c0.3,2.1,0.7,4.3,1,6.4c0.5,2.5,1.1,4.9,2.5,7.2c0.7,1.1,1.6,1.6,2.9,1.6c5.3,0,10.7,0,16,0.1
											c3,0,4.8-1.5,5.2-4.6c0.4-2.8,0.7-5.7,0.9-8.6c0.1-1,0.3-2,0.3-3c0.1-2.5-2-4.4-4.7-4.5
											C122.6,155.4,119.4,155.4,116.1,155.4z"/>
										<path id="ehh46vy8odcj30" class="st0" d="M69.3,155.2c3.1,0,6.3,0,9.4,0.1c0.9,0,2,0.2,2.8,0.7c1.5,0.8,2.5,2.2,2.3,3.9
											c-0.5,4.4-1.2,8.7-2.8,12.8c-0.2,0.5-0.5,0.9-0.7,1.4c-0.8,1.3-1.7,1.9-3.3,1.9c-5.3-0.1-10.6-0.1-15.9-0.1
											c-2.9,0-4.7-1.6-5.1-4.5c-0.5-3.8-0.8-7.7-1.1-11.6c-0.2-2.1,1.4-4,3.6-4.5c0.6-0.1,1.1-0.1,1.6-0.1
											C63.1,155.1,66.2,155.2,69.3,155.2z"/>
										<path id="ehh46vy8odcj31" class="st0" d="M116.1,155.4c3.2,0,6.4,0,9.7,0.1c2.7,0,4.8,2,4.7,4.5c0,1-0.2,2-0.3,3
											c-0.3,2.8-0.6,5.7-0.9,8.6c-0.4,3-2.2,4.6-5.2,4.6c-5.3,0-10.7-0.1-16-0.1c-1.3,0-2.3-0.6-2.9-1.6c-1.3-2.2-2-4.6-2.5-7.2
											c-0.5-2.1-0.8-4.3-1-6.4c-0.5-3.2,1.5-5.4,4.7-5.4C109.7,155.4,112.9,155.4,116.1,155.4z"/>
									</g>
								</g>
							</g>
							<g id="ehh46vy8odcj32">
								<path id="ehh46vy8odcj33" d="M137,192c-2.8,5.4-7.4,9.6-12.2,12.3c-4.9,2.8-10.1,4.5-15.4,5.3c-5.2,0.9-10.5,1-15.7,0.8
									s-10.2-1.1-15.3-2.5c5.1,0.6,10.1,0.6,15.2,0.1c5-0.5,10-1.4,14.6-2.9c4.6-1.5,9-3.7,12.6-6.6c3.6-2.8,6.3-6.4,7.7-10.4
									L137,192z"/>
							</g>
						</g>
						<path id="ehh46vy8odcj34" d="M140,146.1c10.7-6.7,8.7-32.5-3.3-43.9c-8-7.6-14-9.5-15.9-17.4c-1.4-6,6.3-4.5,11.3-6.3
							c0-3.6-42.4-25.4-72.9,6.3c-19.4,20.1-14.1,41.9-10,47.2c2.1,2.7,9.8,0.9,21-4.3C134.8,98.1,126.5,154.7,140,146.1z"/>
						<g id="ehh46vy8odcj35_to" transform="translate(-4.891155,4.102687)">
							<path id="ehh46vy8odcj35" d="M123.4,165.9h-1.2c-2.1,0-3.7-1.9-3.7-4.3l0,0c0-2.4,1.6-4.3,3.7-4.3h1.2c2.1,0,3.7,1.9,3.7,4.3
								l0,0C126.9,164,125.3,165.9,123.4,165.9z"/>
						</g>
						<g id="ehh46vy8odcj36_to" transform="translate(-3.649679,5.979292)">
							<path id="ehh46vy8odcj36" d="M74.6,163.7h-1.2c-2.1,0-3.7-1.9-3.7-4.3l0,0c0-2.4,1.6-4.3,3.7-4.3h1.2c2.1,0,3.7,1.9,3.7,4.3
								l0,0C78.3,161.8,76.7,163.7,74.6,163.7z"/>
						</g>
						<path id="ehh46vy8odcj37" d="M59.1,116.5c0,0-10.9-8.2-8.7-25.1c0,0-16.2,11.5-2.8,37.4L59.1,116.5z"/>
						<path id="ehh46vy8odcj38" d="M64.2,104.2c0,0-6.6-11.8,2.3-25.7c0,0-17.5,3.1-15.9,31.4L64.2,104.2z"/>
					</g>
					<g id="ehh46vy8odcj39">
						<path id="ehh46vy8odcj40" d="M53.1,187.9c-0.9,7.9,0.5,16,4.2,23.1c0-1.7,0-3.3,0-5c2.1,5.5,5,10.6,8.5,15.3
							c-0.2-2.3-0.3-4.6-0.5-6.9c1.8,4.6,4.6,8.8,8.3,12.2c-1.2-2.5-1.7-5.4-1.1-8.2c6.1,6.7,14.6,11.2,23.7,12.2
							c-1.5-1.6-3.1-3.2-4.6-4.8c7.2,0.9,14.4,1.7,21.6,2.7c-1.4-1.1-2.7-2.2-4.2-3.3c3.3-0.4,6.8,0.5,9.6,2.4
							c0.6-2.6,0.8-5.1,0.7-7.8c2.8,1.5,5,4.3,6,7.4c1.7-4.9,2.9-10.1,3.7-15.3c2.2,2.6,3.3,6,3.1,9.3c2.7-8.2,3.9-17.1,3.3-25.8
							c-4.3,6.1-9.4,11.7-15.6,15.8c-6.2,4.2-13.5,6.8-20.9,7c-9,0.3-20.2,0.3-27.7-4.6c-7.5-4.8-11.7-14.4-18.1-20.7"/>
					</g>
				</g>
			</g>
		</g>
		<g id="ehh46vy8odcj41">
			<g id="ehh46vy8odcj42">
				<path id="ehh46vy8odcj43" class="st0" d="M190.3,89.5c4.6,0,5.9,1.4,5.9,5.9v0.9c0,4.6-1.4,5.9-5.9,5.9h-6
					c-4.6,0-5.9-1.4-5.9-5.9v-0.9c0-4.6,1.4-5.9,5.9-5.9L190.3,89.5L190.3,89.5z"/>
				<path id="ehh46vy8odcj44" d="M192.7,105.4c2.4,0,3,0.9,3,3v28.9c0,2.3-0.7,3-3,3h-10.8c-2.4,0-3-0.9-3-3v-28.9c0-2.3,0.7-3,3-3
					H192.7z"/>
				<path id="ehh46vy8odcj45" d="M199.9,116.7c0-11.1,6.5-17.5,19.7-17.5c9.5,0,15.4,4.5,17.7,11.2c0.9,2.4,0.3,3.4-2.1,4.3l-9.3,3
					c-2.5,0.9-3.4,0.3-4.4-2.1c-0.9-2.1-1.5-2.6-2.8-2.6c-1.4,0-2.1,0.9-2.1,2.7v9.1c0,1.8,0.7,2.7,2.1,2.7s2-0.3,2.8-2.4
					c0.9-2.4,1.9-2.8,4.4-2l9.6,2.8c2.3,0.7,3,2.2,2.1,4.5c-3,7.3-9.4,11-19,11c-12.8,0-19-6.4-19-17.6v-7.1H199.9z"/>
				<path id="ehh46vy8odcj46" d="M240.3,116.6c0-11,7.1-17.4,19.7-17.4c12.9,0,19.8,6.4,19.8,17.4v7.4c0,11-6.9,17.4-19.8,17.4
					c-12.7,0-19.7-6.4-19.7-17.4V116.6z M263,116c0-1.7-1-2.6-3-2.6c-1.9,0-2.9,0.9-2.9,2.6v8.8c0,1.6,1,2.5,2.9,2.5
					c2,0,3-0.9,3-2.5V116z"/>
				<path id="ehh46vy8odcj47" d="M304.2,99.2c12,0,18,6.2,18,17.3v20.9c0,2.3-0.7,3-3,3h-10.8c-2.4,0-3-0.9-3-3v-20.1
					c0-2.2-0.7-2.8-2.7-2.8c-0.7,0-1.1,0-1.4,0.1c-0.2,0.1-0.2,0.2-0.2,0.3v22.6c0,2.3-0.7,3-3,3h-10.8c-2.4,0-3-0.9-3-3V107
					c0-2.7,0.6-3.8,3.3-4.7C292.1,100.2,297.8,99.2,304.2,99.2z"/>
			</g>
		</g>
		<g id="ehh46vy8odcj48">
			<path id="ehh46vy8odcj49" class="st0" d="M216.5,200.8c0.8,2.3,0,3.3-2.4,3.3h-10.7c-3.9,0-5.3-1-5.9-3.5l-1-3.9H182l-1,3.9
				c-0.7,2.6-1.9,3.5-5.5,3.5h-10.8c-2.4,0-3-1-2.2-3.3l17.1-48.6c0.7-2.3,1.7-2.7,4.2-2.7h11.4c2.4,0,3.4,0.6,4.2,2.7L216.5,200.8z
				 M190.9,176.6c-0.9-2.8-1.3-6.9-1.4-9l-0.1-1.6h-0.8c0.1,3.8-0.4,7.2-1.2,10.5l-1.7,6.3h6.8L190.9,176.6z"/>
			<path id="ehh46vy8odcj50" class="st0" d="M244.3,149.5c12.6,0,20.7,7.3,20.7,19.9c0,12.5-8,19.6-20.6,19.6h-7.6v11.7
				c0,2.6-0.9,3.4-3.4,3.4h-11.1c-2.6,0-3.4-0.9-3.4-3.4V153c0-2.6,0.9-3.4,3.4-3.4H244.3z M242.2,173.7c5.9,0.5,5.9-9.2,0-8.7h-5.3
				v8.7H242.2z"/>
			<path id="ehh46vy8odcj51" class="st0" d="M306.3,149.5c2.6,0,3.4,0.9,3.4,3.4v8.6c0,2.6-0.9,3.4-3.4,3.4h-19.1v4H302
				c2.6,0,3.4,0.9,3.4,3.4v8.6c0,2.6-0.9,3.4-3.4,3.4h-14.8v4.4h19.5c2.6,0,3.4,0.9,3.4,3.4v8.7c0,2.6-0.9,3.4-3.4,3.4h-34
				c-2.6,0-3.4-0.9-3.4-3.4v-48c0-2.6,0.9-3.4,3.4-3.4H306.3z"/>
		</g>
	</g>
	<g id="ehh46vy8odcj52">
		<path id="ehh46vy8odcj53" class="st4" d="M163.5,217.4c3.8,0,5.1,1.9,5.1,5v6.5c0,0.9-0.2,1.1-0.9,1.4c-1,0.4-2.5,0.7-4.3,0.7
			c-2.1,0-3.5-0.3-4.3-0.9c-0.8-0.7-1.1-1.6-1.1-3c0-2.9,1.5-3.9,5.6-3.9c0.9,0,1.8,0.1,2.8,0.2v-0.9c0-1.9-0.8-2.9-2.9-2.9
			c-1.4,0-2.5,0.5-3.1,1.5c-0.3,0.4-0.4,0.5-0.9,0.3l-0.8-0.4c-0.4-0.2-0.6-0.5-0.3-0.9C159.4,218.3,161.1,217.4,163.5,217.4z
			 M166.5,225.1c-1.3-0.1-2.4-0.2-3.1-0.2c-2.3,0-3,0.7-3,2.1s0.7,2.1,3,2.1c1.2,0,2.2-0.1,2.7-0.3c0.3-0.1,0.4-0.3,0.4-0.6V225.1z"
			/>
		<path id="ehh46vy8odcj54" class="st4" d="M177.3,217.4c3.4,0,5,1.6,5,4.9v7.7c0,0.5-0.2,0.6-0.6,0.6h-1c-0.4,0-0.6-0.1-0.6-0.6
			v-7.7c0-2-1-2.9-3.1-2.9c-1,0-2,0.2-2.9,0.5c-0.2,0.1-0.3,0.2-0.3,0.5v9.7c0,0.5-0.1,0.6-0.6,0.6h-1c-0.4,0-0.6-0.2-0.6-0.6v-10.4
			c0-0.8,0.2-1,0.9-1.4C173.9,217.6,175.5,217.4,177.3,217.4z"/>
		<path id="ehh46vy8odcj55" class="st5" d="M195.9,217.3c3.6,0,5.3,1.7,5.3,5.1v6.4c0,0.9-0.2,1.1-0.9,1.4c-1,0.4-2.5,0.7-4.5,0.7
			c-2.1,0-3.6-0.3-4.4-1c-0.8-0.7-1.2-1.7-1.2-3c0-2.9,1.6-4,5.7-4c0.2,0,0.9,0.1,2.4,0.1v-0.7c0-1.6-0.7-2.5-2.5-2.5
			c-1.2,0-2.1,0.4-2.7,1.2c-0.4,0.6-0.5,0.6-1,0.4l-1-0.4c-0.6-0.3-0.7-0.7-0.4-1.1C191.6,218.2,193.3,217.3,195.9,217.3z
			 M198.3,225.5c-1.7-0.1-2.7-0.1-2.7-0.1c-1.8,0-2.4,0.6-2.4,1.6c0,1.1,0.6,1.7,2.4,1.7c1,0,1.9-0.1,2.5-0.2
			c0.2-0.1,0.3-0.2,0.3-0.4V225.5z"/>
		<path id="ehh46vy8odcj56" class="st5" d="M210.3,217.3c0.6,0,0.8,0.2,0.8,0.8v1.1c0,0.6-0.2,0.8-0.8,0.8h-0.9
			c-0.9,0-1.7,0.1-2.4,0.3c-0.2,0-0.3,0.1-0.3,0.3v9.3c0,0.6-0.2,0.8-0.8,0.8h-1.3c-0.6,0-0.8-0.2-0.8-0.8v-10.3
			c0-0.8,0.2-1.1,0.9-1.4c1.2-0.5,2.7-0.7,4.6-0.8H210.3z"/>
		<path id="ehh46vy8odcj57" class="st5" d="M214.8,212.1c0.6,0,0.8,0.2,0.8,0.8v4.8c1.2-0.3,2.2-0.4,3-0.4c3.5,0,5.2,1.7,5.2,5v3.4
			c0,3.5-1.9,5.3-5.6,5.3c-1.8,0-3.2-0.3-4.6-0.8c-0.8-0.4-0.9-0.6-0.9-1.3v-16c0-0.6,0.2-0.8,0.8-0.8L214.8,212.1L214.8,212.1z
			 M220.8,222.5c0-1.6-0.9-2.5-2.7-2.5c-0.9,0-1.7,0.2-2.6,0.5v7.4c0,0.1,0.1,0.2,0.2,0.3c0.6,0.2,1.2,0.3,2.2,0.3
			c2,0,2.9-0.9,2.9-2.7V222.5z"/>
		<path id="ehh46vy8odcj58" class="st5" d="M233.1,212.1c0.6,0,0.8,0.2,0.8,0.8v1.1c0,0.6-0.2,0.8-0.8,0.8c-2.1,0-2.8,0.7-2.8,2.6
			v0.3h2.8c0.6,0,0.8,0.2,0.8,0.8v1.1c0,0.6-0.2,0.8-0.8,0.8h-2.8v9.5c0,0.6-0.2,0.8-0.8,0.8h-1.3c-0.6,0-0.8-0.2-0.8-0.8v-9.5h-1.5
			c-0.6,0-0.8-0.2-0.8-0.8v-1.1c0-0.6,0.2-0.8,0.8-0.8h1.5v-0.3c0-3.5,1.8-5.2,5.5-5.3L233.1,212.1L233.1,212.1z"/>
		<path id="ehh46vy8odcj59" class="st5" d="M234.9,222.4c0-3.1,2.1-5,5.8-5c3.7,0,5.8,1.9,5.8,5v3.7c0,3.1-2.1,5-5.8,5
			c-3.7,0-5.8-1.9-5.8-5V222.4z M243.5,222.4c0-1.5-1-2.4-2.8-2.4c-1.8,0-2.8,0.9-2.8,2.4v3.7c0,1.5,1,2.4,2.8,2.4
			c1.8,0,2.8-0.9,2.8-2.4V222.4z"/>
		<path id="ehh46vy8odcj60" class="st5" d="M254.7,217.3c3.5,0,5.2,1.8,5.2,5v7.5c0,0.6-0.2,0.8-0.8,0.8h-1.3
			c-0.6,0-0.8-0.2-0.8-0.8v-7.4c0-1.6-0.9-2.5-2.7-2.5c-0.8,0-1.6,0.1-2.4,0.3c-0.1,0.1-0.2,0.1-0.2,0.3v9.3c0,0.6-0.2,0.8-0.8,0.8
			h-1.3c-0.6,0-0.8-0.2-0.8-0.8v-10.2c0-0.8,0.2-1.1,0.9-1.4C251.2,217.6,252.8,217.3,254.7,217.3z"/>
		<path id="ehh46vy8odcj61" class="st5" d="M265.9,214.7c0.6,0,0.8,0.2,0.8,0.8v2.3h2.8c0.6,0,0.8,0.2,0.8,0.8v1.1
			c0,0.6-0.2,0.8-0.8,0.8h-2.8v5c0,1.1,0.2,2,0.6,2.3c0.4,0.4,1.1,0.6,2.2,0.6c0.6,0,0.8,0.2,0.8,0.8v1.1c0,0.6-0.2,0.8-0.8,0.8
			c-2.1,0.1-3.6-0.3-4.5-1.1c-0.9-0.8-1.3-2.3-1.3-4.4v-5.1h-1.7c-0.6,0-0.8-0.2-0.8-0.8v-1.1c0-0.6,0.2-0.8,0.8-0.8h1.7v-2.3
			c0-0.6,0.2-0.8,0.8-0.8L265.9,214.7L265.9,214.7z"/>
		<path id="ehh46vy8odcj62" class="st5" d="M277.1,217.3c2.7,0,4.5,0.9,5.3,2.7c0.3,0.5,0.1,0.9-0.4,1.1l-1.1,0.5
			c-0.6,0.2-0.8,0.2-1-0.4c-0.5-0.9-1.3-1.3-2.7-1.3c-1.6,0-2.4,0.5-2.4,1.3c0,1.1,0.8,1.3,2.9,1.5c3.4,0.3,5.1,1.2,5.1,4
			c0,2.6-1.9,4.2-5.4,4.2c-2.9,0-4.8-1-5.6-3c-0.2-0.6,0-0.9,0.5-1l1.1-0.4c0.5-0.2,0.8-0.1,1,0.5c0.4,0.9,1.3,1.3,2.8,1.3
			c1.8,0,2.7-0.5,2.7-1.5c0-1.1-0.8-1.3-3-1.6c-1.1-0.1-1.8-0.2-2.8-0.6c-0.5-0.2-0.9-0.4-1.1-0.7c-0.6-0.6-1-1.5-1-2.7
			C272,218.9,273.8,217.3,277.1,217.3z"/>
		<path id="ehh46vy8odcj63" class="st4" d="M296.7,212.5c3.4,0,5.3,1.2,6.5,3.8c0.2,0.4,0.1,0.7-0.4,0.9l-1,0.5
			c-0.5,0.2-0.7,0.2-0.9-0.3c-0.9-1.7-2.1-2.6-4.3-2.6c-2.7,0-4.2,0.9-4.2,2.8c0,1.3,0.8,2,2.1,2.4c0.9,0.3,1.5,0.4,2.7,0.5
			c1.4,0.2,2.3,0.3,3.5,0.8c0.7,0.3,1.1,0.6,1.5,0.9c0.8,0.7,1.3,1.8,1.3,3.4c0,3.4-2.5,5.4-6.9,5.4c-3.7,0-5.7-1.3-6.8-4.3
			c-0.2-0.5-0.1-0.7,0.4-0.9l1-0.4c0.4-0.2,0.7-0.1,0.9,0.4c0.9,1.9,2.3,2.8,4.6,2.8c3,0,4.5-1,4.5-3.1c0-1-0.5-1.7-1.3-2.1
			c-0.9-0.4-1.6-0.5-3-0.7c-1.3-0.1-1.9-0.2-3-0.6c-0.6-0.1-1-0.3-1.4-0.6c-1.1-0.7-2.3-1.8-2.2-4
			C290,214.7,292.5,212.5,296.7,212.5z"/>
		<path id="ehh46vy8odcj64" class="st4" d="M305.6,222.7c0-3.4,2-5.3,5.6-5.3c3.7,0,5.6,2.1,5.6,5.1v1.4c0,0.6-0.3,0.9-0.9,0.9h-8.2
			v1.2c0,1.9,1.1,3,3.3,3c1.6,0,2.7-0.6,3.5-1.7c0.3-0.4,0.6-0.5,0.9-0.2l0.7,0.4c0.4,0.2,0.5,0.6,0.2,0.9c-0.9,1.7-2.7,2.6-5.4,2.6
			c-3.7,0-5.5-2-5.5-5.2v-3.1H305.6z M314.6,222.5c0-2-1.2-3.1-3.4-3.1c-2.2,0-3.4,1.1-3.4,3.1v0.8h6.8V222.5z"/>
		<path id="ehh46vy8odcj65" class="st4" d="M325.6,217.4c0.5,0,0.6,0.2,0.6,0.6v0.9c0,0.4-0.1,0.6-0.6,0.6h-0.9c-1,0-2,0.2-2.8,0.4
			c-0.2,0.1-0.4,0.3-0.4,0.5v9.8c0,0.5-0.1,0.6-0.6,0.6h-1c-0.4,0-0.6-0.2-0.6-0.6v-10.5c0-0.8,0.2-1,0.9-1.4
			c1.2-0.5,2.8-0.8,4.6-0.8L325.6,217.4L325.6,217.4z"/>
		<path id="ehh46vy8odcj66" class="st4" d="M338.3,217.7c0.6,0,0.7,0.1,0.5,0.7l-4.8,11.7c-0.2,0.4-0.4,0.6-0.9,0.6h-0.7
			c-0.4,0-0.7-0.2-0.9-0.6l-4.8-11.7c-0.2-0.6-0.1-0.7,0.5-0.7h0.8c0.7,0,0.9,0.1,1,0.6l2.9,7.2c0.3,0.9,0.7,2.3,0.7,2.4h0.1
			c0-0.1,0.3-1.5,0.7-2.4l2.9-7.2c0.2-0.5,0.4-0.6,1-0.6H338.3z"/>
		<path id="ehh46vy8odcj67" class="st4" d="M341.9,213.1c0.9,0,1.2,0.3,1.2,1.2v0.2c0,0.9-0.3,1.2-1.2,1.2h-0.2
			c-0.9,0-1.2-0.3-1.2-1.2v-0.2c0-0.9,0.3-1.2,1.2-1.2H341.9z M342.3,217.7c0.5,0,0.6,0.1,0.6,0.6v11.8c0,0.5-0.1,0.6-0.6,0.6h-1
			c-0.5,0-0.6-0.1-0.6-0.6v-11.7c0-0.5,0.1-0.6,0.6-0.6L342.3,217.7L342.3,217.7z"/>
		<path id="ehh46vy8odcj68" class="st4" d="M345.6,222.4c0-3.1,1.9-5,5.6-5c2.8,0,4.6,1.1,5.3,3.3c0.2,0.4,0,0.7-0.4,0.9l-0.9,0.3
			c-0.4,0.2-0.7,0.1-0.9-0.4c-0.5-1.4-1.5-2.1-3.2-2.1c-2.1,0-3.2,1-3.2,2.9v3.8c0,1.9,1.1,2.9,3.2,2.9c1.7,0,2.7-0.8,3.2-2.2
			c0.2-0.5,0.4-0.6,0.9-0.4l0.9,0.3c0.4,0.2,0.6,0.5,0.4,0.9c-0.9,2.3-2.7,3.4-5.5,3.4c-3.6,0-5.4-1.8-5.4-5V222.4z"/>
		<path id="ehh46vy8odcj69" class="st4" d="M358.4,222.7c0-3.4,2-5.3,5.6-5.3c3.7,0,5.6,2.1,5.6,5.1v1.4c0,0.6-0.3,0.9-0.9,0.9h-8.2
			v1.2c0,1.9,1.1,3,3.3,3c1.6,0,2.7-0.6,3.5-1.7c0.3-0.4,0.6-0.5,0.9-0.2l0.7,0.4c0.4,0.2,0.5,0.6,0.2,0.9c-0.9,1.7-2.7,2.6-5.4,2.6
			c-3.7,0-5.5-2-5.5-5.2v-3.1H358.4z M367.5,222.5c0-2-1.2-3.1-3.4-3.1s-3.4,1.1-3.4,3.1v0.8h6.8V222.5z"/>
	</g>
</g>
</svg>
